<svg width="49" height="49" viewBox="0 0 49 49" fill="none" xmlns="http://www.w3.org/2000/svg">
<path fill-rule="evenodd" clip-rule="evenodd" d="M27.5317 31.2593C29.9397 31.2593 31.8997 33.2053 31.8997 35.5973V41.7493C31.8997 42.2633 32.3117 42.6753 32.8397 42.6873H36.6517C39.6557 42.6873 42.0977 40.2753 42.0977 37.3113V19.8633C42.0837 18.8433 41.5977 17.8833 40.7637 17.2453L27.5777 6.72926C25.8077 5.32726 23.3317 5.32726 21.5557 6.73326L8.45966 17.2413C7.59366 17.8993 7.10766 18.8593 7.09766 19.8973V37.3113C7.09766 40.2753 9.53966 42.6873 12.5437 42.6873H16.3917C16.9337 42.6873 17.3737 42.2573 17.3737 41.7293C17.3737 41.6133 17.3877 41.4973 17.4117 41.3873V35.5973C17.4117 33.2193 19.3597 31.2753 21.7497 31.2593H27.5317ZM36.6517 45.6873H32.8037C30.5997 45.6353 28.8997 43.9053 28.8997 41.7493V35.5973C28.8997 34.8593 28.2857 34.2593 27.5317 34.2593H21.7597C21.0217 34.2633 20.4117 34.8653 20.4117 35.5973V41.7293C20.4117 41.8793 20.3917 42.0233 20.3497 42.1593C20.1337 44.1393 18.4417 45.6873 16.3917 45.6873H12.5437C7.88566 45.6873 4.09766 41.9293 4.09766 37.3113V19.8833C4.11766 17.8953 5.03366 16.0753 6.61566 14.8773L19.6857 4.38726C22.5637 2.10726 26.5737 2.10726 29.4457 4.38326L42.6097 14.8833C44.1557 16.0613 45.0717 17.8773 45.0977 19.8413V37.3113C45.0977 41.9293 41.3097 45.6873 36.6517 45.6873Z" fill="#1565D8"/>
</svg>
