<svg width="24" height="24" viewBox="0 0 24 24" fill="none" xmlns="http://www.w3.org/2000/svg">
<path d="M4.5759 4.57504C4.85719 4.29384 5.23865 4.13586 5.6364 4.13586C6.03414 4.13586 6.41561 4.29384 6.6969 4.57504L12.0009 9.87904L17.3049 4.57504C17.5878 4.30181 17.9667 4.15062 18.36 4.15403C18.7533 4.15745 19.1295 4.3152 19.4076 4.59332C19.6857 4.87143 19.8435 5.24765 19.8469 5.64094C19.8503 6.03424 19.6991 6.41314 19.4259 6.69604L14.1219 12L19.4259 17.304C19.6991 17.5869 19.8503 17.9658 19.8469 18.3591C19.8435 18.7524 19.6857 19.1287 19.4076 19.4068C19.1295 19.6849 18.7533 19.8426 18.36 19.8461C17.9667 19.8495 17.5878 19.6983 17.3049 19.425L12.0009 14.121L6.6969 19.425C6.414 19.6983 6.03509 19.8495 5.6418 19.8461C5.2485 19.8426 4.87228 19.6849 4.59417 19.4068C4.31606 19.1287 4.1583 18.7524 4.15489 18.3591C4.15147 17.9658 4.30266 17.5869 4.5759 17.304L9.8799 12L4.5759 6.69604C4.29469 6.41475 4.13672 6.03329 4.13672 5.63554C4.13672 5.2378 4.29469 4.85634 4.5759 4.57504Z" fill="#B12121"/>
</svg>
