<svg width="49" height="49" viewBox="0 0 49 49" fill="none" xmlns="http://www.w3.org/2000/svg">
<path fill-rule="evenodd" clip-rule="evenodd" d="M22.823 4.77612C27.715 4.77612 31.695 8.75612 31.695 13.6481V15.5121C31.695 16.3401 31.023 17.0121 30.195 17.0121C29.367 17.0121 28.695 16.3401 28.695 15.5121V13.6481C28.695 10.4081 26.061 7.77612 22.823 7.77612H13.073C9.83903 7.77612 7.20703 10.4081 7.20703 13.6481V35.9061C7.20703 39.1441 9.83903 41.7761 13.073 41.7761H22.845C26.069 41.7761 28.695 39.1521 28.695 35.9281V34.0421C28.695 33.2141 29.367 32.5421 30.195 32.5421C31.023 32.5421 31.695 33.2141 31.695 34.0421V35.9281C31.695 40.8081 27.723 44.7761 22.845 44.7761H13.073C8.18503 44.7761 4.20703 40.7981 4.20703 35.9061V13.6481C4.20703 8.75612 8.18503 4.77612 13.073 4.77612H22.823ZM38.9832 17.8841L44.8392 23.7141C44.8915 23.766 44.9383 23.8199 44.9811 23.8769L44.8392 23.7141C44.9101 23.784 44.9731 23.8603 45.0278 23.9417C45.0518 23.9786 45.0751 24.0168 45.0966 24.056C45.114 24.0866 45.1301 24.1186 45.145 24.1511C45.1576 24.1798 45.1697 24.2085 45.181 24.2377C45.196 24.2757 45.2093 24.3147 45.2208 24.3543C45.2296 24.3855 45.2376 24.4166 45.2446 24.4481C45.2535 24.4863 45.2606 24.5248 45.2661 24.5635C45.2692 24.5887 45.2723 24.6151 45.2747 24.6416C45.2793 24.6873 45.2812 24.7316 45.2812 24.7761L45.271 24.9001L45.2669 24.9796C45.2665 24.983 45.266 24.9864 45.2655 24.9897L45.2812 24.7761C45.2812 24.8871 45.2689 24.9971 45.245 25.104C45.2376 25.1356 45.2296 25.1667 45.2206 25.1974C45.2093 25.2375 45.196 25.2766 45.1813 25.315C45.1697 25.3438 45.1576 25.3725 45.1446 25.4007C45.1301 25.4337 45.114 25.4657 45.0968 25.497C45.0751 25.5355 45.0518 25.5736 45.027 25.6106C45.013 25.6325 44.9976 25.6542 44.9816 25.6754C44.934 25.7381 44.8821 25.797 44.8259 25.8516L38.9832 31.6701C38.6912 31.9621 38.3072 32.1081 37.9252 32.1081C37.5412 32.1081 37.1552 31.9621 36.8632 31.6661C36.2792 31.0781 36.2812 30.1301 36.8672 29.5461L40.147 26.2761H19.6986C18.8706 26.2761 18.1986 25.6041 18.1986 24.7761C18.1986 23.9481 18.8706 23.2761 19.6986 23.2761H40.151L36.8672 20.0081C36.2812 19.4241 36.2772 18.4761 36.8632 17.8881C37.4472 17.3001 38.3952 17.3001 38.9832 17.8841Z" fill="#D03333"/>
</svg>
