<svg width="127" height="49" viewBox="0 0 127 49" fill="none" xmlns="http://www.w3.org/2000/svg">
<path d="M0 48.8071V21.8553H3.06326V45.8988H7.11436V48.8071H0Z" fill="#444053"/>
<path d="M19.9495 48.8071L17.1758 21.8553H20.1734L22.149 44.8003L24.1272 21.8553H26.9958L24.2221 48.8071H19.9495V48.8071Z" fill="#444053"/>
<path d="M30.4922 21.8553H38.0494V24.7637H33.553V33.6998H37.4752V36.6082H33.553V45.8988H38.1151V48.8071H30.4922V21.8553Z" fill="#444053"/>
<path d="M14.1651 21.8553V48.8071H11.1019V24.7637H7.05078V21.8553H14.1651Z" fill="#444053"/>
<path d="M93.1782 25.4022L92.5407 24.6934H91.424L90.7865 25.4022V32.991L91.424 33.6998H94.4215L96.3364 35.829V46.6806L94.4215 48.8071H89.5748L87.66 46.6806V41.0425H90.7232V45.263L91.3607 45.9718H92.6356L93.2731 45.263V37.3197L92.6356 36.6109H89.6381L87.7256 34.4817V23.9845L89.6381 21.8553H94.3266L96.2415 23.9845V29.6579H93.1782V25.4022Z" fill="#444053"/>
<path d="M101.284 41.8568L100.678 48.8071H97.617L100.52 21.8553H104.921L107.887 48.8071H104.697L104.091 41.8568H101.284ZM102.688 25.367L101.508 38.9484H103.868L102.688 25.367Z" fill="#444053"/>
<path d="M116.851 24.7637H112.45V34.0191H116.404V36.9274H112.45V48.8071H109.387V21.8553H116.849V24.7637H116.851Z" fill="#444053"/>
<path d="M118.379 21.8553H125.938V24.7637H121.442V33.6998H125.364V36.6082H121.442V45.8988H126.002V48.8071H118.379V21.8553Z" fill="#444053"/>
<path d="M73.9786 21.9226V14.0615C73.9786 6.53439 68.7823 0.407368 62.2568 0.0348652C62.289 0.0330302 62.3196 0.0256907 62.3518 0.0238557C62.1134 0.00917584 61.8733 0 61.6316 0C54.8128 0 49.283 6.29585 49.283 14.0634V21.9244H48.0762H45.1953V48.7318H48.0762H78.0647V21.9226H73.9786ZM53.7365 21.9226V14.0615C53.7365 9.10338 57.278 5.07007 61.6316 5.07007C61.8878 5.07007 62.1408 5.08659 62.3905 5.11411C62.5081 5.12696 62.6225 5.15081 62.7401 5.16916C62.8787 5.19118 63.0173 5.21137 63.1542 5.24073C63.2718 5.26642 63.3879 5.30312 63.5039 5.33431C63.6344 5.37101 63.7649 5.40404 63.8922 5.44808C64.0082 5.48662 64.1194 5.53432 64.2322 5.58019C64.3562 5.62974 64.4803 5.67745 64.6011 5.73434C64.7123 5.78572 64.8203 5.84261 64.9282 5.89949C65.0458 5.96188 65.1635 6.02427 65.2779 6.09216C65.3842 6.15455 65.4857 6.22244 65.5888 6.29033C65.7 6.36373 65.8112 6.43898 65.9175 6.51788C66.0174 6.59128 66.1141 6.66835 66.2091 6.74726C66.3139 6.8335 66.417 6.91974 66.5185 7.01149C66.6103 7.09407 66.7006 7.1803 66.7892 7.26655C66.8875 7.3638 66.9825 7.46289 67.076 7.56382C67.1598 7.65557 67.242 7.74732 67.3225 7.84274C67.4127 7.94917 67.4998 8.0611 67.5851 8.17303C67.6609 8.27212 67.735 8.37121 67.8075 8.47397C67.8897 8.59141 67.967 8.71253 68.0443 8.83364C68.1104 8.94007 68.1781 9.04466 68.2409 9.15476C68.3134 9.28137 68.3811 9.41349 68.4488 9.54561C68.5052 9.65755 68.5632 9.76764 68.6163 9.88141C68.6808 10.019 68.7372 10.1603 68.7952 10.3016C68.8419 10.4172 68.8903 10.531 68.9338 10.6484C68.9869 10.7971 69.0337 10.9494 69.0804 11.1017C69.1158 11.2191 69.1561 11.3347 69.1867 11.454C69.2302 11.6155 69.2641 11.7825 69.2979 11.9476C69.3221 12.0632 69.3511 12.177 69.372 12.2944C69.4042 12.4798 69.4252 12.6688 69.4478 12.8578C69.459 12.9605 69.4784 13.0596 69.4864 13.1642C69.5106 13.4468 69.5235 13.733 69.5251 14.023C69.5251 14.034 69.5267 14.045 69.5267 14.0578V21.9189H53.7365V21.9226Z" fill="#1F55BC"/>
<path d="M62.4731 39.8331H55.5898V36.592L62.4731 28.0563H65.5631V36.3891L78.0605 36.3566V39.8331H65.5631V48.7318H62.4731V39.8331ZM62.4731 36.3566V32.3065L59.0594 36.3566H62.4731Z" fill="#F7F2FA"/>
</svg>
